<svg width="135" height="33" viewBox="0 0 135 33" fill="none" xmlns="http://www.w3.org/2000/svg">
<g clip-path="url(#clip0)">
<path d="M5.19822 0.922913H0L14.7949 26.5229L17.394 22.0229L5.19822 0.922913Z" fill="white"/>
<path d="M19.2934 15.5229L10.8962 0.922913H5.79799L17.6939 21.5229L19.3933 18.6229C19.6932 18.1229 19.7932 17.6229 19.7932 17.0229C19.7932 16.5229 19.5933 15.9229 19.2934 15.5229V15.5229Z" fill="white"/>
<path d="M8.99692 17.623L0.199936 32.923H5.29819L11.596 22.023L8.99692 17.623Z" fill="white"/>
<path d="M11.8959 22.5229L5.898 32.9229H11.0962L14.4951 27.0229L11.8959 22.5229Z" fill="white"/>
<path d="M37.4008 15.113C36.2255 15.113 35.1424 14.8307 34.1515 14.2661C33.1606 13.7015 32.3714 12.9295 31.7837 11.9501C31.2076 10.9592 30.9196 9.85884 30.9196 8.64901C30.9196 7.43918 31.2076 6.34457 31.7837 5.36518C32.3714 4.37427 33.1606 3.59652 34.1515 3.03194C35.1424 2.46735 36.2255 2.18505 37.4008 2.18505C38.3341 2.18505 39.204 2.35213 40.0106 2.68627C40.8171 3.02041 41.4912 3.48706 42.0327 4.08622L40.6846 5.43431C40.2813 4.98495 39.7974 4.63928 39.2328 4.39732C38.6798 4.15535 38.0633 4.03437 37.3835 4.03437C36.5885 4.03437 35.8453 4.22448 35.154 4.60472C34.4626 4.98495 33.9096 5.52649 33.4948 6.22934C33.08 6.9322 32.8726 7.73875 32.8726 8.64901C32.8726 9.55926 33.08 10.3658 33.4948 11.0687C33.9096 11.7715 34.4626 12.3131 35.154 12.6933C35.8453 13.0735 36.5942 13.2636 37.4008 13.2636C38.1382 13.2636 38.7547 13.1542 39.2501 12.9353C39.7456 12.7163 40.1892 12.4225 40.5809 12.0538C40.8344 11.8003 41.0476 11.4835 41.2204 11.1032C41.4048 10.723 41.5257 10.3082 41.5834 9.85884H37.3835V8.13051H43.4154C43.473 8.45313 43.5018 8.78727 43.5018 9.13294C43.5018 9.91645 43.3808 10.6712 43.1388 11.397C42.8969 12.1114 42.5109 12.7336 41.9809 13.2636C40.8171 14.4965 39.2904 15.113 37.4008 15.113ZM44.8722 2.46159H48.83C50.109 2.46159 51.2267 2.72084 52.183 3.23933C53.1393 3.75783 53.871 4.48949 54.378 5.43431C54.8965 6.36761 55.1557 7.43918 55.1557 8.64901C55.1557 9.85884 54.8965 10.9362 54.378 11.881C53.871 12.8143 53.1393 13.5402 52.183 14.0587C51.2267 14.5772 50.109 14.8364 48.83 14.8364H44.8722V2.46159ZM48.7955 12.9871C50.1781 12.9871 51.2555 12.6069 52.0275 11.8464C52.811 11.0744 53.2027 10.0086 53.2027 8.64901C53.2027 7.30091 52.811 6.24087 52.0275 5.46888C51.2555 4.69689 50.1781 4.3109 48.7955 4.3109H46.8079V12.9871H48.7955ZM62.3569 15.113C61.1817 15.113 60.0986 14.8307 59.1077 14.2661C58.1168 13.7015 57.3275 12.9295 56.7399 11.9501C56.1637 10.9592 55.8757 9.85884 55.8757 8.64901C55.8757 7.43918 56.1637 6.34457 56.7399 5.36518C57.3275 4.37427 58.1168 3.59652 59.1077 3.03194C60.0986 2.46735 61.1817 2.18505 62.3569 2.18505C63.2902 2.18505 64.1602 2.35213 64.9667 2.68627C65.7733 3.02041 66.4473 3.48706 66.9889 4.08622L65.6408 5.43431C65.2375 4.98495 64.7535 4.63928 64.189 4.39732C63.6359 4.15535 63.0195 4.03437 62.3396 4.03437C61.5446 4.03437 60.8014 4.22448 60.1101 4.60472C59.4188 4.98495 58.8657 5.52649 58.4509 6.22934C58.0361 6.9322 57.8287 7.73875 57.8287 8.64901C57.8287 9.55926 58.0361 10.3658 58.4509 11.0687C58.8657 11.7715 59.4188 12.3131 60.1101 12.6933C60.8014 13.0735 61.5504 13.2636 62.3569 13.2636C63.0943 13.2636 63.7108 13.1542 64.2062 12.9353C64.7017 12.7163 65.1453 12.4225 65.5371 12.0538C65.7905 11.8003 66.0037 11.4835 66.1765 11.1032C66.3609 10.723 66.4819 10.3082 66.5395 9.85884H62.3396V8.13051H68.3715C68.4291 8.45313 68.4579 8.78727 68.4579 9.13294C68.4579 9.91645 68.3369 10.6712 68.095 11.397C67.853 12.1114 67.467 12.7336 66.937 13.2636C65.7733 14.4965 64.2466 15.113 62.3569 15.113ZM73.0149 2.46159H76.9728C78.2518 2.46159 79.3694 2.72084 80.3257 3.23933C81.2821 3.75783 82.0137 4.48949 82.5207 5.43431C83.0392 6.36761 83.2985 7.43918 83.2985 8.64901C83.2985 9.85884 83.0392 10.9362 82.5207 11.881C82.0137 12.8143 81.2821 13.5402 80.3257 14.0587C79.3694 14.5772 78.2518 14.8364 76.9728 14.8364H73.0149V2.46159ZM76.9382 12.9871C78.3209 12.9871 79.3982 12.6069 80.1702 11.8464C80.9537 11.0744 81.3455 10.0086 81.3455 8.64901C81.3455 7.30091 80.9537 6.24087 80.1702 5.46888C79.3982 4.69689 78.3209 4.3109 76.9382 4.3109H74.9506V12.9871H76.9382ZM88.1034 15.113C87.2392 15.113 86.4615 14.9113 85.7701 14.508C85.0903 14.1048 84.5545 13.5517 84.1628 12.8488C83.7825 12.1345 83.5924 11.3337 83.5924 10.4465C83.5924 9.60535 83.7768 8.8276 84.1455 8.11322C84.5257 7.38733 85.05 6.81122 85.7183 6.38489C86.3866 5.95857 87.147 5.74541 87.9997 5.74541C88.8869 5.74541 89.6531 5.94129 90.2983 6.33304C90.9551 6.7248 91.4506 7.26058 91.7847 7.94039C92.1304 8.6202 92.3032 9.38643 92.3032 10.2391C92.3032 10.4004 92.2859 10.602 92.2514 10.844H85.4936C85.5627 11.6621 85.8508 12.2958 86.3578 12.7451C86.8763 13.183 87.4754 13.4019 88.1552 13.4019C88.6968 13.4019 89.1634 13.2809 89.5552 13.039C89.9584 12.7855 90.2811 12.4456 90.523 12.0192L92.1304 12.7797C91.7156 13.5056 91.174 14.076 90.5057 14.4908C89.8375 14.9056 89.0367 15.113 88.1034 15.113ZM90.3675 9.39219C90.3444 9.08109 90.2465 8.77575 90.0737 8.47617C89.9008 8.16507 89.6358 7.90582 89.2786 7.69842C88.933 7.49103 88.5066 7.38733 87.9997 7.38733C87.389 7.38733 86.8705 7.57168 86.4442 7.94039C86.0294 8.29758 85.7413 8.78151 85.58 9.39219H90.3675ZM92.0164 6.02194H94.1423L96.5792 12.3822H96.6483L99.1371 6.02194H101.211L97.5471 14.8364H95.6459L92.0164 6.02194ZM101.883 2.46159H109.402V4.3109H103.819V7.87126H108.849V9.70329H103.819V14.8364H101.883V2.46159ZM113.782 15.113C112.918 15.113 112.14 14.9113 111.449 14.508C110.769 14.1048 110.233 13.5517 109.841 12.8488C109.461 12.1345 109.271 11.3337 109.271 10.4465C109.271 9.60535 109.455 8.8276 109.824 8.11322C110.204 7.38733 110.728 6.81122 111.397 6.38489C112.065 5.95857 112.826 5.74541 113.678 5.74541C114.565 5.74541 115.332 5.94129 115.977 6.33304C116.634 6.7248 117.129 7.26058 117.463 7.94039C117.809 8.6202 117.982 9.38643 117.982 10.2391C117.982 10.4004 117.964 10.602 117.93 10.844H111.172C111.241 11.6621 111.529 12.2958 112.036 12.7451C112.555 13.183 113.154 13.4019 113.834 13.4019C114.375 13.4019 114.842 13.2809 115.234 13.039C115.637 12.7855 115.96 12.4456 116.202 12.0192L117.809 12.7797C117.394 13.5056 116.853 14.076 116.184 14.4908C115.516 14.9056 114.715 15.113 113.782 15.113ZM116.046 9.39219C116.023 9.08109 115.925 8.77575 115.752 8.47617C115.579 8.16507 115.314 7.90582 114.957 7.69842C114.611 7.49103 114.185 7.38733 113.678 7.38733C113.068 7.38733 112.549 7.57168 112.123 7.94039C111.708 8.29758 111.42 8.78151 111.259 9.39219H116.046ZM122.148 15.113C121.134 15.113 120.304 14.894 119.659 14.4562C119.014 14.0068 118.559 13.4365 118.294 12.7451L119.988 12.002C120.195 12.4629 120.483 12.8143 120.852 13.0562C121.232 13.2982 121.664 13.4192 122.148 13.4192C122.62 13.4192 123.018 13.3385 123.34 13.1772C123.663 13.0044 123.824 12.7509 123.824 12.4168C123.824 12.0941 123.686 11.8407 123.41 11.6563C123.133 11.4719 122.707 11.3106 122.131 11.1724L121.076 10.9131C120.374 10.7403 119.792 10.4349 119.331 9.9971C118.87 9.55926 118.639 9.00619 118.639 8.33791C118.639 7.81941 118.789 7.36428 119.089 6.97253C119.4 6.58077 119.815 6.28119 120.333 6.07379C120.852 5.85487 121.416 5.74541 122.027 5.74541C122.845 5.74541 123.565 5.91248 124.187 6.24663C124.81 6.56925 125.259 7.04166 125.535 7.66386L123.876 8.38976C123.542 7.70995 122.931 7.37004 122.044 7.37004C121.618 7.37004 121.261 7.45646 120.973 7.62929C120.685 7.80212 120.541 8.02681 120.541 8.30334C120.541 8.56835 120.65 8.78727 120.869 8.96011C121.088 9.12142 121.411 9.25968 121.837 9.3749L123.133 9.70329C123.997 9.92221 124.648 10.2564 125.086 10.7057C125.535 11.1436 125.76 11.6851 125.76 12.3303C125.76 12.8834 125.599 13.3731 125.276 13.7994C124.965 14.2142 124.533 14.5368 123.98 14.7673C123.427 14.9977 122.816 15.113 122.148 15.113ZM130.07 14.9747C129.678 14.9747 129.309 14.9113 128.964 14.7846C128.618 14.6578 128.336 14.4908 128.117 14.2834C127.621 13.7879 127.374 13.1139 127.374 12.2612V7.69842H125.835V6.02194H127.374V3.53315H129.275V6.02194H131.418V7.69842H129.275V11.8464C129.275 12.3188 129.367 12.653 129.551 12.8488C129.724 13.0793 130.024 13.1945 130.45 13.1945C130.646 13.1945 130.819 13.1715 130.969 13.1254C131.118 13.0678 131.28 12.9814 131.452 12.8661V14.7154C131.072 14.8883 130.611 14.9747 130.07 14.9747ZM31.5418 18.4616H35.4996C36.7786 18.4616 37.8962 18.7208 38.8526 19.2393C39.8089 19.7578 40.5406 20.4895 41.0476 21.4343C41.5661 22.3676 41.8253 23.4392 41.8253 24.649C41.8253 25.8588 41.5661 26.9362 41.0476 27.881C40.5406 28.8143 39.8089 29.5402 38.8526 30.0587C37.8962 30.5772 36.7786 30.8364 35.4996 30.8364H31.5418V18.4616ZM35.4651 28.9871C36.8477 28.9871 37.9251 28.6069 38.697 27.8464C39.4806 27.0744 39.8723 26.0086 39.8723 24.649C39.8723 23.3009 39.4806 22.2409 38.697 21.4689C37.9251 20.6969 36.8477 20.3109 35.4651 20.3109H33.4775V28.9871H35.4651ZM46.1355 18.4616H48.3477L52.9969 30.8364H50.8538L49.7477 27.6736H44.7528L43.6294 30.8364H41.4863L46.1355 18.4616ZM49.0909 25.8761L47.7774 22.1948L47.2935 20.7603H47.1898L46.7058 22.1948L45.3923 25.8761H49.0909ZM59.3184 31.113C58.1201 31.113 57.0255 30.8307 56.0346 30.2661C55.0437 29.7015 54.266 28.9237 53.7014 27.9328C53.1368 26.9419 52.8545 25.8473 52.8545 24.649C52.8545 23.4507 53.1368 22.3561 53.7014 21.3652C54.266 20.3743 55.0437 19.5965 56.0346 19.0319C57.0255 18.4673 58.1201 18.1851 59.3184 18.1851C60.2517 18.1851 61.0986 18.3579 61.8591 18.7036C62.6311 19.0492 63.3109 19.5504 63.8985 20.2072L62.5159 21.538C62.0895 21.031 61.6171 20.6566 61.0986 20.4146C60.5801 20.1611 59.9867 20.0344 59.3184 20.0344C58.4888 20.0344 57.7284 20.2245 57.037 20.6047C56.3572 20.9849 55.8157 21.5265 55.4124 22.2293C55.0091 22.9207 54.8075 23.7272 54.8075 24.649C54.8075 25.5708 55.0091 26.3831 55.4124 27.086C55.8157 27.7773 56.3572 28.3131 57.037 28.6933C57.7284 29.0735 58.4888 29.2636 59.3184 29.2636C60.7011 29.2636 61.8764 28.6875 62.8442 27.5353L64.2442 28.8834C63.645 29.5863 62.9249 30.1336 62.0838 30.5253C61.2426 30.9171 60.3209 31.113 59.3184 31.113ZM65.5412 18.4616H67.477V23.5947H73.215V18.4616H75.1335V30.8364H73.215V25.4268H67.477V30.8364H65.5412V18.4616ZM79.6984 29.039C80.0671 28.6703 80.793 27.9444 81.8761 26.8613C82.9592 25.7667 83.6793 25.0235 84.0365 24.6317C84.5205 24.1132 84.8488 23.6927 85.0217 23.37C85.206 23.0474 85.2982 22.6614 85.2982 22.2121C85.2982 21.7627 85.1254 21.3709 84.7797 21.0368C84.434 20.7027 83.9674 20.5356 83.3798 20.5356C82.8382 20.5356 82.3946 20.6969 82.0489 21.0195C81.7148 21.3306 81.4959 21.6936 81.3922 22.1084L79.6639 21.3997C79.7791 20.9849 79.9922 20.5759 80.3033 20.1726C80.626 19.7694 81.0523 19.4295 81.5823 19.1529C82.1123 18.8764 82.723 18.7381 83.4143 18.7381C84.1633 18.7381 84.8258 18.8937 85.4019 19.2048C85.9895 19.5043 86.4389 19.9191 86.75 20.4492C87.0726 20.9677 87.2339 21.5438 87.2339 22.1775C87.2339 22.8573 87.0553 23.5141 86.6982 24.1478C86.3525 24.77 85.9089 25.3519 85.3673 25.8934C85.1369 26.1123 84.555 26.6884 83.6217 27.6217C82.6769 28.5666 82.2045 29.039 82.2045 29.039L82.2391 29.1081H87.3895V30.8364H79.6984V29.039ZM93.1097 31.113C92.1418 31.113 91.2892 30.8422 90.5518 30.3006C89.8144 29.7476 89.244 29.0044 88.8407 28.0711C88.449 27.1263 88.2531 26.0778 88.2531 24.9255C88.2531 23.7618 88.449 22.7133 88.8407 21.78C89.244 20.8352 89.8144 20.092 90.5518 19.5504C91.2892 19.0089 92.1418 18.7381 93.1097 18.7381C94.0776 18.7381 94.9245 19.0089 95.6504 19.5504C96.3878 20.092 96.9524 20.8352 97.3441 21.78C97.7474 22.7133 97.949 23.7618 97.949 24.9255C97.949 26.0778 97.7474 27.1263 97.3441 28.0711C96.9524 29.0044 96.3878 29.7476 95.6504 30.3006C94.9129 30.8422 94.0661 31.113 93.1097 31.113ZM93.1097 29.3155C93.6973 29.3155 94.2101 29.1254 94.6479 28.7451C95.0973 28.3534 95.4372 27.8291 95.6676 27.1724C95.9096 26.5041 96.0306 25.7551 96.0306 24.9255C96.0306 24.0959 95.9096 23.347 95.6676 22.6787C95.4372 22.0104 95.0973 21.4862 94.6479 21.1059C94.2101 20.7257 93.6973 20.5356 93.1097 20.5356C92.5106 20.5356 91.9921 20.7257 91.5542 21.1059C91.1164 21.4862 90.7765 22.0104 90.5345 22.6787C90.3041 23.347 90.1888 24.0959 90.1888 24.9255C90.1888 25.7551 90.3041 26.5041 90.5345 27.1724C90.7765 27.8291 91.1164 28.3534 91.5542 28.7451C91.9921 29.1254 92.5106 29.3155 93.1097 29.3155ZM98.629 29.039C98.9977 28.6703 99.7236 27.9444 100.807 26.8613C101.89 25.7667 102.61 25.0235 102.967 24.6317C103.451 24.1132 103.779 23.6927 103.952 23.37C104.137 23.0474 104.229 22.6614 104.229 22.2121C104.229 21.7627 104.056 21.3709 103.71 21.0368C103.365 20.7027 102.898 20.5356 102.31 20.5356C101.769 20.5356 101.325 20.6969 100.98 21.0195C100.645 21.3306 100.426 21.6936 100.323 22.1084L98.5945 21.3997C98.7097 20.9849 98.9228 20.5759 99.2339 20.1726C99.5566 19.7694 99.9829 19.4295 100.513 19.1529C101.043 18.8764 101.654 18.7381 102.345 18.7381C103.094 18.7381 103.756 18.8937 104.333 19.2048C104.92 19.5043 105.37 19.9191 105.681 20.4492C106.003 20.9677 106.165 21.5438 106.165 22.1775C106.165 22.8573 105.986 23.5141 105.629 24.1478C105.283 24.77 104.839 25.3519 104.298 25.8934C104.068 26.1123 103.486 26.6884 102.552 27.6217C101.608 28.5666 101.135 29.039 101.135 29.039L101.17 29.1081H106.32V30.8364H98.629V29.039ZM112.04 31.113C111.072 31.113 110.22 30.8422 109.482 30.3006C108.745 29.7476 108.175 29.0044 107.771 28.0711C107.38 27.1263 107.184 26.0778 107.184 24.9255C107.184 23.7618 107.38 22.7133 107.771 21.78C108.175 20.8352 108.745 20.092 109.482 19.5504C110.22 19.0089 111.072 18.7381 112.04 18.7381C113.008 18.7381 113.855 19.0089 114.581 19.5504C115.318 20.092 115.883 20.8352 116.275 21.78C116.678 22.7133 116.88 23.7618 116.88 24.9255C116.88 26.0778 116.678 27.1263 116.275 28.0711C115.883 29.0044 115.318 29.7476 114.581 30.3006C113.844 30.8422 112.997 31.113 112.04 31.113ZM112.04 29.3155C112.628 29.3155 113.141 29.1254 113.579 28.7451C114.028 28.3534 114.368 27.8291 114.598 27.1724C114.84 26.5041 114.961 25.7551 114.961 24.9255C114.961 24.0959 114.84 23.347 114.598 22.6787C114.368 22.0104 114.028 21.4862 113.579 21.1059C113.141 20.7257 112.628 20.5356 112.04 20.5356C111.441 20.5356 110.923 20.7257 110.485 21.1059C110.047 21.4862 109.707 22.0104 109.465 22.6787C109.235 23.347 109.119 24.0959 109.119 24.9255C109.119 25.7551 109.235 26.5041 109.465 27.1724C109.707 27.8291 110.047 28.3534 110.485 28.7451C110.923 29.1254 111.441 29.3155 112.04 29.3155Z" fill="white"/>
</g>
<defs>
<clipPath id="clip0">
<rect width="134.054" height="32" fill="white" transform="translate(0 0.922913)"/>
</clipPath>
</defs>
</svg>
