<svg width="537" height="129" viewBox="0 0 537 129" fill="none" xmlns="http://www.w3.org/2000/svg">
<g clip-path="url(#clip0)">
<path d="M20.7929 0.922913H0L59.1797 103.323L69.5761 85.3229L20.7929 0.922913Z" fill="white"/>
<path d="M77.1735 59.3229L43.585 0.922913H23.192L70.7757 83.3229L77.5734 71.7229C78.773 69.7229 79.1728 67.7229 79.1728 65.3229C79.1728 63.3229 78.3731 60.9229 77.1735 59.3229V59.3229Z" fill="white"/>
<path d="M35.9877 67.723L0.799744 128.923H21.1928L46.3841 85.323L35.9877 67.723Z" fill="white"/>
<path d="M47.5838 87.3229L23.592 128.923H44.3849L57.9802 105.323L47.5838 87.3229Z" fill="white"/>
<path d="M149.644 56.6847C144.937 56.6847 140.598 55.5539 136.629 53.2923C132.66 51.0308 129.498 47.9385 127.144 44.0154C124.837 40.0462 123.683 35.6385 123.683 30.7923C123.683 25.9462 124.837 21.5615 127.144 17.6385C129.498 13.6692 132.66 10.5538 136.629 8.29229C140.598 6.03074 144.937 4.89997 149.644 4.89997C153.383 4.89997 156.867 5.56921 160.098 6.90767C163.329 8.24613 166.029 10.1154 168.198 12.5154L162.798 17.9154C161.183 16.1154 159.244 14.7308 156.983 13.7615C154.767 12.7923 152.298 12.3077 149.575 12.3077C146.39 12.3077 143.413 13.0692 140.644 14.5923C137.875 16.1154 135.66 18.2846 133.998 21.1C132.337 23.9154 131.506 27.1462 131.506 30.7923C131.506 34.4385 132.337 37.6692 133.998 40.4846C135.66 43.3 137.875 45.4693 140.644 46.9923C143.413 48.5154 146.413 49.277 149.644 49.277C152.598 49.277 155.067 48.8385 157.052 47.9616C159.037 47.0846 160.813 45.9077 162.383 44.4308C163.398 43.4154 164.252 42.1462 164.944 40.6231C165.683 39.1 166.167 37.4385 166.398 35.6385H149.575V28.7154H173.737C173.967 30.0077 174.083 31.3462 174.083 32.7308C174.083 35.8692 173.598 38.8923 172.629 41.8C171.66 44.6616 170.113 47.1539 167.99 49.277C163.329 54.2154 157.213 56.6847 149.644 56.6847ZM179.572 6.00767H195.426C200.549 6.00767 205.026 7.04613 208.857 9.12306C212.687 11.2 215.618 14.1308 217.649 17.9154C219.726 21.6538 220.764 25.9462 220.764 30.7923C220.764 35.6385 219.726 39.9539 217.649 43.7385C215.618 47.477 212.687 50.3847 208.857 52.4616C205.026 54.5385 200.549 55.577 195.426 55.577H179.572V6.00767ZM195.287 48.1693C200.826 48.1693 205.141 46.6462 208.234 43.6C211.372 40.5077 212.941 36.2385 212.941 30.7923C212.941 25.3923 211.372 21.1461 208.234 18.0538C205.141 14.9615 200.826 13.4154 195.287 13.4154H187.326V48.1693H195.287ZM249.61 56.6847C244.902 56.6847 240.564 55.5539 236.594 53.2923C232.625 51.0308 229.464 47.9385 227.11 44.0154C224.802 40.0462 223.648 35.6385 223.648 30.7923C223.648 25.9462 224.802 21.5615 227.11 17.6385C229.464 13.6692 232.625 10.5538 236.594 8.29229C240.564 6.03074 244.902 4.89997 249.61 4.89997C253.348 4.89997 256.833 5.56921 260.064 6.90767C263.294 8.24613 265.994 10.1154 268.164 12.5154L262.764 17.9154C261.148 16.1154 259.21 14.7308 256.948 13.7615C254.733 12.7923 252.264 12.3077 249.541 12.3077C246.356 12.3077 243.379 13.0692 240.61 14.5923C237.841 16.1154 235.625 18.2846 233.964 21.1C232.302 23.9154 231.471 27.1462 231.471 30.7923C231.471 34.4385 232.302 37.6692 233.964 40.4846C235.625 43.3 237.841 45.4693 240.61 46.9923C243.379 48.5154 246.379 49.277 249.61 49.277C252.564 49.277 255.033 48.8385 257.018 47.9616C259.002 47.0846 260.779 45.9077 262.348 44.4308C263.364 43.4154 264.218 42.1462 264.91 40.6231C265.648 39.1 266.133 37.4385 266.364 35.6385H249.541V28.7154H273.702C273.933 30.0077 274.048 31.3462 274.048 32.7308C274.048 35.8692 273.564 38.8923 272.594 41.8C271.625 44.6616 270.079 47.1539 267.956 49.277C263.294 54.2154 257.179 56.6847 249.61 56.6847ZM292.302 6.00767H308.156C313.279 6.00767 317.756 7.04613 321.587 9.12306C325.417 11.2 328.348 14.1308 330.379 17.9154C332.456 21.6538 333.494 25.9462 333.494 30.7923C333.494 35.6385 332.456 39.9539 330.379 43.7385C328.348 47.477 325.417 50.3847 321.587 52.4616C317.756 54.5385 313.279 55.577 308.156 55.577H292.302V6.00767ZM308.017 48.1693C313.556 48.1693 317.871 46.6462 320.964 43.6C324.102 40.5077 325.671 36.2385 325.671 30.7923C325.671 25.3923 324.102 21.1461 320.964 18.0538C317.871 14.9615 313.556 13.4154 308.017 13.4154H300.056V48.1693H308.017ZM352.741 56.6847C349.28 56.6847 346.164 55.877 343.395 54.2616C340.672 52.6462 338.526 50.4308 336.956 47.6154C335.433 44.7539 334.672 41.5462 334.672 37.9923C334.672 34.6231 335.41 31.5077 336.887 28.6462C338.41 25.7385 340.51 23.4308 343.187 21.7231C345.864 20.0154 348.91 19.1615 352.326 19.1615C355.88 19.1615 358.949 19.9461 361.533 21.5154C364.164 23.0846 366.149 25.2308 367.487 27.9539C368.872 30.6769 369.564 33.7462 369.564 37.1616C369.564 37.8077 369.495 38.6154 369.356 39.5846H342.287C342.564 42.8616 343.718 45.4 345.749 47.2C347.826 48.9539 350.226 49.8308 352.949 49.8308C355.118 49.8308 356.987 49.3462 358.556 48.377C360.172 47.3616 361.464 46 362.433 44.2923L368.872 47.3385C367.21 50.2462 365.041 52.5308 362.364 54.1923C359.687 55.8539 356.48 56.6847 352.741 56.6847ZM361.81 33.7692C361.718 32.5231 361.326 31.3 360.633 30.1C359.941 28.8539 358.88 27.8154 357.449 26.9846C356.064 26.1538 354.356 25.7385 352.326 25.7385C349.88 25.7385 347.803 26.4769 346.095 27.9539C344.433 29.3846 343.28 31.3231 342.633 33.7692H361.81ZM368.415 20.2692H376.931L386.692 45.7462H386.969L396.938 20.2692H405.246L390.569 55.577H382.954L368.415 20.2692ZM407.939 6.00767H438.055V13.4154H415.693V27.6769H435.839V35.0154H415.693V55.577H407.939V6.00767ZM455.6 56.6847C452.139 56.6847 449.023 55.877 446.254 54.2616C443.531 52.6462 441.385 50.4308 439.816 47.6154C438.293 44.7539 437.531 41.5462 437.531 37.9923C437.531 34.6231 438.27 31.5077 439.746 28.6462C441.27 25.7385 443.37 23.4308 446.046 21.7231C448.723 20.0154 451.77 19.1615 455.185 19.1615C458.739 19.1615 461.808 19.9461 464.393 21.5154C467.023 23.0846 469.008 25.2308 470.346 27.9539C471.731 30.6769 472.423 33.7462 472.423 37.1616C472.423 37.8077 472.354 38.6154 472.216 39.5846H445.146C445.423 42.8616 446.577 45.4 448.608 47.2C450.685 48.9539 453.085 49.8308 455.808 49.8308C457.977 49.8308 459.846 49.3462 461.416 48.377C463.031 47.3616 464.323 46 465.293 44.2923L471.731 47.3385C470.07 50.2462 467.9 52.5308 465.223 54.1923C462.546 55.8539 459.339 56.6847 455.6 56.6847ZM464.67 33.7692C464.577 32.5231 464.185 31.3 463.493 30.1C462.8 28.8539 461.739 27.8154 460.308 26.9846C458.923 26.1538 457.216 25.7385 455.185 25.7385C452.739 25.7385 450.662 26.4769 448.954 27.9539C447.293 29.3846 446.139 31.3231 445.493 33.7692H464.67ZM489.112 56.6847C485.05 56.6847 481.727 55.8077 479.143 54.0539C476.558 52.2539 474.735 49.9693 473.673 47.2L480.458 44.2231C481.289 46.0693 482.443 47.477 483.919 48.4462C485.443 49.4154 487.173 49.9 489.112 49.9C491.004 49.9 492.596 49.577 493.889 48.9308C495.181 48.2385 495.827 47.2231 495.827 45.8846C495.827 44.5923 495.273 43.5769 494.166 42.8385C493.058 42.1 491.35 41.4539 489.043 40.9L484.819 39.8616C482.004 39.1693 479.673 37.9462 477.827 36.1923C475.981 34.4385 475.058 32.2231 475.058 29.5462C475.058 27.4692 475.658 25.6462 476.858 24.0769C478.104 22.5077 479.766 21.3077 481.843 20.4769C483.919 19.6 486.181 19.1615 488.627 19.1615C491.904 19.1615 494.789 19.8308 497.281 21.1692C499.773 22.4615 501.573 24.3538 502.681 26.8462L496.035 29.7539C494.696 27.0308 492.25 25.6692 488.696 25.6692C486.989 25.6692 485.558 26.0154 484.404 26.7077C483.25 27.4 482.673 28.3 482.673 29.4077C482.673 30.4692 483.112 31.3462 483.989 32.0385C484.866 32.6846 486.158 33.2385 487.866 33.7L493.058 35.0154C496.519 35.8923 499.127 37.2308 500.881 39.0308C502.681 40.7846 503.581 42.9539 503.581 45.5385C503.581 47.7539 502.935 49.7154 501.643 51.4231C500.396 53.0847 498.666 54.377 496.45 55.3C494.235 56.2231 491.789 56.6847 489.112 56.6847ZM520.844 56.1308C519.275 56.1308 517.798 55.877 516.413 55.3693C515.028 54.8616 513.898 54.1923 513.021 53.3616C511.036 51.377 510.044 48.677 510.044 45.2616V26.9846H503.882V20.2692H510.044V10.3H517.659V20.2692H526.244V26.9846H517.659V43.6C517.659 45.4923 518.028 46.8308 518.767 47.6154C519.459 48.5385 520.659 49 522.367 49C523.152 49 523.844 48.9077 524.444 48.7231C525.044 48.4923 525.69 48.1462 526.382 47.6846V55.0923C524.859 55.7847 523.013 56.1308 520.844 56.1308ZM126.175 71.0077H142.029C147.152 71.0077 151.629 72.0461 155.46 74.1231C159.29 76.2 162.221 79.1308 164.252 82.9154C166.329 86.6538 167.367 90.9462 167.367 95.7923C167.367 100.638 166.329 104.954 164.252 108.738C162.221 112.477 159.29 115.385 155.46 117.462C151.629 119.539 147.152 120.577 142.029 120.577H126.175V71.0077ZM141.89 113.169C147.429 113.169 151.744 111.646 154.837 108.6C157.975 105.508 159.544 101.238 159.544 95.7923C159.544 90.3923 157.975 86.1461 154.837 83.0538C151.744 79.9615 147.429 78.4154 141.89 78.4154H133.929V113.169H141.89ZM184.632 71.0077H193.494L212.117 120.577H203.532L199.102 107.908H179.094L174.594 120.577H166.009L184.632 71.0077ZM196.471 100.708L191.209 85.9615L189.271 80.2154H188.855L186.917 85.9615L181.655 100.708H196.471ZM237.439 121.685C232.639 121.685 228.254 120.554 224.285 118.292C220.316 116.031 217.2 112.915 214.939 108.946C212.677 104.977 211.546 100.592 211.546 95.7923C211.546 90.9923 212.677 86.6077 214.939 82.6385C217.2 78.6692 220.316 75.5538 224.285 73.2923C228.254 71.0307 232.639 69.9 237.439 69.9C241.177 69.9 244.569 70.5923 247.616 71.9769C250.708 73.3615 253.431 75.3692 255.785 78L250.246 83.3308C248.539 81.3 246.646 79.8 244.569 78.8308C242.493 77.8154 240.116 77.3077 237.439 77.3077C234.116 77.3077 231.069 78.0692 228.3 79.5923C225.577 81.1154 223.408 83.2846 221.793 86.1C220.177 88.8692 219.369 92.1 219.369 95.7923C219.369 99.4846 220.177 102.738 221.793 105.554C223.408 108.323 225.577 110.469 228.3 111.992C231.069 113.515 234.116 114.277 237.439 114.277C242.977 114.277 247.685 111.969 251.562 107.354L257.169 112.754C254.769 115.569 251.885 117.762 248.516 119.331C245.146 120.9 241.454 121.685 237.439 121.685ZM262.365 71.0077H270.119V91.5692H293.104V71.0077H300.788V120.577H293.104V98.9077H270.119V120.577H262.365V71.0077ZM319.074 113.377C320.551 111.9 323.458 108.992 327.797 104.654C332.135 100.269 335.02 97.2923 336.451 95.7231C338.389 93.6462 339.705 91.9615 340.397 90.6692C341.135 89.3769 341.505 87.8308 341.505 86.0308C341.505 84.2308 340.812 82.6615 339.428 81.3231C338.043 79.9846 336.174 79.3154 333.82 79.3154C331.651 79.3154 329.874 79.9615 328.489 81.2538C327.151 82.5 326.274 83.9538 325.858 85.6154L318.935 82.7769C319.397 81.1154 320.251 79.4769 321.497 77.8615C322.789 76.2461 324.497 74.8846 326.62 73.7769C328.743 72.6692 331.189 72.1154 333.958 72.1154C336.958 72.1154 339.612 72.7384 341.92 73.9846C344.274 75.1846 346.074 76.8461 347.32 78.9692C348.612 81.0461 349.258 83.3538 349.258 85.8923C349.258 88.6154 348.543 91.2462 347.112 93.7846C345.728 96.2769 343.951 98.6077 341.782 100.777C340.858 101.654 338.528 103.962 334.789 107.7C331.005 111.485 329.112 113.377 329.112 113.377L329.251 113.654H349.882V120.577H319.074V113.377ZM372.795 121.685C368.918 121.685 365.502 120.6 362.549 118.431C359.595 116.215 357.31 113.238 355.695 109.5C354.126 105.715 353.341 101.515 353.341 96.9C353.341 92.2385 354.126 88.0385 355.695 84.3C357.31 80.5154 359.595 77.5384 362.549 75.3692C365.502 73.2 368.918 72.1154 372.795 72.1154C376.672 72.1154 380.064 73.2 382.972 75.3692C385.926 77.5384 388.187 80.5154 389.756 84.3C391.372 88.0385 392.179 92.2385 392.179 96.9C392.179 101.515 391.372 105.715 389.756 109.5C388.187 113.238 385.926 116.215 382.972 118.431C380.018 120.6 376.626 121.685 372.795 121.685ZM372.795 114.485C375.149 114.485 377.202 113.723 378.956 112.2C380.756 110.631 382.118 108.531 383.041 105.9C384.01 103.223 384.495 100.223 384.495 96.9C384.495 93.5769 384.01 90.5769 383.041 87.9C382.118 85.2231 380.756 83.1231 378.956 81.6C377.202 80.0769 375.149 79.3154 372.795 79.3154C370.395 79.3154 368.318 80.0769 366.564 81.6C364.81 83.1231 363.449 85.2231 362.479 87.9C361.556 90.5769 361.095 93.5769 361.095 96.9C361.095 100.223 361.556 103.223 362.479 105.9C363.449 108.531 364.81 110.631 366.564 112.2C368.318 113.723 370.395 114.485 372.795 114.485ZM394.903 113.377C396.38 111.9 399.288 108.992 403.626 104.654C407.965 100.269 410.849 97.2923 412.28 95.7231C414.219 93.6462 415.534 91.9615 416.226 90.6692C416.965 89.3769 417.334 87.8308 417.334 86.0308C417.334 84.2308 416.642 82.6615 415.257 81.3231C413.872 79.9846 412.003 79.3154 409.649 79.3154C407.48 79.3154 405.703 79.9615 404.319 81.2538C402.98 82.5 402.103 83.9538 401.688 85.6154L394.765 82.7769C395.226 81.1154 396.08 79.4769 397.326 77.8615C398.619 76.2461 400.326 74.8846 402.449 73.7769C404.572 72.6692 407.019 72.1154 409.788 72.1154C412.788 72.1154 415.442 72.7384 417.749 73.9846C420.103 75.1846 421.903 76.8461 423.149 78.9692C424.442 81.0461 425.088 83.3538 425.088 85.8923C425.088 88.6154 424.372 91.2462 422.942 93.7846C421.557 96.2769 419.78 98.6077 417.611 100.777C416.688 101.654 414.357 103.962 410.619 107.7C406.834 111.485 404.942 113.377 404.942 113.377L405.08 113.654H425.711V120.577H394.903V113.377ZM448.624 121.685C444.747 121.685 441.332 120.6 438.378 118.431C435.424 116.215 433.14 113.238 431.524 109.5C429.955 105.715 429.17 101.515 429.17 96.9C429.17 92.2385 429.955 88.0385 431.524 84.3C433.14 80.5154 435.424 77.5384 438.378 75.3692C441.332 73.2 444.747 72.1154 448.624 72.1154C452.501 72.1154 455.893 73.2 458.801 75.3692C461.755 77.5384 464.017 80.5154 465.586 84.3C467.201 88.0385 468.009 92.2385 468.009 96.9C468.009 101.515 467.201 105.715 465.586 109.5C464.017 113.238 461.755 116.215 458.801 118.431C455.847 120.6 452.455 121.685 448.624 121.685ZM448.624 114.485C450.978 114.485 453.032 113.723 454.786 112.2C456.586 110.631 457.947 108.531 458.87 105.9C459.84 103.223 460.324 100.223 460.324 96.9C460.324 93.5769 459.84 90.5769 458.87 87.9C457.947 85.2231 456.586 83.1231 454.786 81.6C453.032 80.0769 450.978 79.3154 448.624 79.3154C446.224 79.3154 444.147 80.0769 442.393 81.6C440.64 83.1231 439.278 85.2231 438.309 87.9C437.386 90.5769 436.924 93.5769 436.924 96.9C436.924 100.223 437.386 103.223 438.309 105.9C439.278 108.531 440.64 110.631 442.393 112.2C444.147 113.723 446.224 114.485 448.624 114.485Z" fill="white"/>
</g>
<defs>
<clipPath id="clip0">
<rect width="536.216" height="128" fill="white" transform="translate(0 0.922913)"/>
</clipPath>
</defs>
</svg>
